<svg width="78" height="77" viewBox="0 0 78 77" fill="none" xmlns="http://www.w3.org/2000/svg">
<path fill-rule="evenodd" clip-rule="evenodd" d="M54.8762 4.87971C57.2661 3.53153 60.2536 5.21676 60.2536 7.91312C60.3389 10.1882 62.3875 11.7891 64.6067 11.3678C67.3381 10.8623 69.5573 13.3059 68.7891 15.918C68.1063 18.0245 69.6427 20.2995 71.8619 20.5523C74.5933 20.8894 75.959 23.9228 74.4226 26.1136C73.1423 27.9673 73.8251 30.4952 75.8736 31.422C78.349 32.5174 78.7757 35.8879 76.5565 37.5731C74.764 38.9213 74.5933 41.5334 76.3004 43.0501C78.349 44.9039 77.6661 48.1901 75.0201 49.0327C72.8862 49.791 71.9473 52.2346 73.0569 54.1726C74.4226 56.5319 72.7155 59.4811 69.9841 59.4811C67.6795 59.5653 66.0577 61.5876 66.4845 63.7784C66.9967 66.4748 64.5213 68.6656 61.8753 67.9072C59.7414 67.2331 57.4368 68.7498 57.1808 70.9406C56.8393 73.637 53.7665 74.9852 51.5473 73.4685C49.6695 72.2045 47.1088 72.8786 46.1699 74.9009C45.0603 77.3445 41.646 77.7658 39.9389 75.575C38.5732 73.8055 35.9272 73.637 34.3908 75.3222C32.513 77.3445 29.1841 76.6704 28.3305 74.0583C27.5623 71.9518 25.087 71.0249 23.1238 72.1203C20.7339 73.4685 17.7464 71.7832 17.7464 69.0869C17.6611 66.8118 15.6125 65.2109 13.3933 65.6322C10.6619 66.1377 8.44267 63.6941 9.21087 61.082C9.89372 58.9755 8.35731 56.7005 6.13807 56.4477C3.40668 56.1106 2.04099 53.0772 3.5774 50.8864C4.85773 49.0327 4.17489 46.5048 2.12635 45.578C-0.348965 44.4826 -0.775743 41.1121 1.4435 39.4269C3.23597 38.0787 3.40668 35.4666 1.69957 33.9499C-0.348965 32.0961 0.333881 28.8099 2.97991 27.9673C5.1138 27.209 6.05271 24.7654 4.94309 22.8274C3.5774 20.4681 5.28451 17.5189 8.01589 17.5189C10.3205 17.4347 11.9423 15.4124 11.5155 13.2216C11.0033 10.5252 13.4787 8.33443 16.1247 9.09278C18.2586 9.76687 20.5632 8.25017 20.8192 6.05937C21.1607 3.36301 24.2335 2.01483 26.4527 3.53153C28.3305 4.79545 30.8912 4.12136 31.8301 2.09909C32.9397 -0.344491 36.354 -0.765798 38.0611 1.425C39.4268 3.19449 42.0728 3.36301 43.6092 1.67778C45.487 -0.344491 48.8159 0.3296 49.6695 2.9417C50.3523 5.04824 52.913 5.97511 54.8762 4.87971Z" fill="#FF4658"/>
</svg>
